<svg xmlns="http://www.w3.org/2000/svg" viewBox="0 0 512 512">
<defs>
<linearGradient id="g" x1="0" x2="1" y1="0" y2="1"><stop offset="0" stop-color="#07111f"/><stop offset="1" stop-color="#0b2a3a"/></linearGradient>
<linearGradient id="b" x1="0" x2="1"><stop offset="0" stop-color="#22c55e"/><stop offset="1" stop-color="#38bdf8"/></linearGradient>
<filter id="s"><feDropShadow dx="0" dy="14" stdDeviation="14" flood-color="#000" flood-opacity=".45"/></filter>
</defs>
<rect width="512" height="512" rx="112" fill="url(#g)"/>
<circle cx="256" cy="196" r="112" fill="#08111f" stroke="url(#b)" stroke-width="18" filter="url(#s)"/>
<path d="M220 128h52c38 0 62 20 62 50 0 21-11 36-30 44 24 8 38 25 38 50 0 34-27 58-70 58h-52V128zm32 34v47h20c17 0 29-9 29-24 0-14-11-23-29-23h-20zm0 79v55h24c20 0 33-10 33-27 0-18-13-28-34-28h-23z" fill="#22c55e"/>
<path d="M214 112v42M298 112v42M214 300v42M298 300v42" stroke="#38bdf8" stroke-width="14" stroke-linecap="round"/>
<text x="256" y="392" font-size="40" text-anchor="middle" fill="white" font-family="Arial" font-weight="800">DOKTOR</text>
<text x="256" y="438" font-size="42" text-anchor="middle" fill="#22c55e" font-family="Arial" font-weight="900">KRIPTA</text>
</svg>